<?xml version="1.0" standalone="no"?>
<!DOCTYPE svg PUBLIC "-//W3C//DTD SVG 20010904//EN"
 "http://www.w3.org/TR/2001/REC-SVG-20010904/DTD/svg10.dtd">
<svg version="1.0" xmlns="http://www.w3.org/2000/svg"
 width="512.000000pt" height="512.000000pt" viewBox="0 0 512.000000 512.000000"
 preserveAspectRatio="xMidYMid meet">
<metadata>
Created by potrace 1.11, written by Peter Selinger 2001-2013
</metadata>
<g>
	<polygon points="452.3,215.8 432.6,274 417.4,215.8 417.2,215.8 381.2,215.8 381,215.8 365.8,274 346.1,215.8 345.8,215.8 
		309.9,215.8 309.6,215.8 289.9,274 274.7,215.8 274.5,215.8 238.5,215.8 238.3,215.8 223.1,274 203.4,215.8 203.1,215.8 
		167.2,215.8 166.9,215.8 147.2,274 132,215.8 131.8,215.8 95.8,215.8 95.6,215.8 80.4,274 60.7,215.8 24.5,215.8 64.7,334.5 
		100.9,334.5 113.8,285 126.7,334.5 162.9,334.5 185.2,268.8 207.4,334.5 243.6,334.5 256.5,285 269.4,334.5 305.6,334.5 
		327.8,268.8 350.1,334.5 386.3,334.5 399.2,285 412.1,334.5 448.3,334.5 488.5,215.8 	"/>
	<path d="M256.5,426.4c-52.4,0-101.2-23.6-133.7-64.9l-28.4,22.4c39.5,50,98.6,78.6,162.2,78.6s122.7-28.7,162.2-78.6l-28.4-22.4
		C357.7,402.7,308.9,426.4,256.5,426.4z"/>
	<path d="M171,182.7c21.5-25,52.6-39.3,85.5-39.3v-22.8c-39.5,0-77,17.2-102.8,47.2L171,182.7z"/>
	<path d="M256.5,85.7c65.4,0,125.8,38.2,153.9,97.3l32.7-15.5c-16.5-34.8-42.4-64.2-74.8-85.1c-33.3-21.5-72-32.8-111.8-32.8
		s-78.4,11.4-111.8,32.8c-32.4,20.9-58.3,50.3-74.8,85.1l32.7,15.5C130.7,123.9,191.1,85.7,256.5,85.7z"/>
</g>
</svg>
